<?xml version="1.0" encoding="UTF-8"?>
<svg width="214px" height="190px" viewBox="0 0 214 190" version="1.1" xmlns="http://www.w3.org/2000/svg" xmlns:xlink="http://www.w3.org/1999/xlink">
    <!-- Generator: Sketch 48.2 (47327) - http://www.bohemiancoding.com/sketch -->
    <title>Group 2</title>
    <desc>Created with Sketch.</desc>
    <defs></defs>
    <g id="message_01" stroke="none" stroke-width="1" fill="none" fill-rule="evenodd" transform="translate(-268.000000, -442.000000)">
        <g id="Group-2" transform="translate(268.000000, 442.000000)">
            <g id="if_social-58_1591870" transform="translate(44.000000, 59.000000)" fill="#21B3FE">
                <g id="Group">
                    <path d="M98.9973913,34.6227368 C93.7854348,35.1974737 88.6806957,35.3654737 83.7576304,36.3852632 C72.3211087,38.7696842 62.9157609,44.5258947 56.3367826,54.264 C50.6304348,62.7082105 49.4629565,71.9364211 52.0272391,81.6951579 C52.1672174,82.2256842 52.3310217,82.7591579 52.5871522,83.6698947 C49.5016739,83.4871579 46.5770217,83.5136842 43.7268261,83.0951579 C40.1112174,82.5587368 36.5581522,81.6273684 32.960413,80.9524211 C32.2694565,80.8256842 31.3998043,80.9229474 30.7803261,81.2471579 C26.3725,83.5048421 22.0093478,85.848 17.6283261,88.1616842 C17.0386304,88.4711579 16.4310652,88.7541053 15.4958913,89.208 C15.7222391,88.3621053 15.835413,87.8021053 16.0200652,87.2627368 C17.2322174,83.6581053 18.4056522,80.0446316 19.7101304,76.4812632 C20.1121957,75.3701053 19.8947826,74.8395789 18.9357826,74.1675789 C11.1893261,68.7149474 5.16132609,61.8416842 2.43323913,52.696 C-2.2068913,37.1427368 2.50769565,24.0682105 14.3224565,13.4930526 C25.744087,3.27452632 39.5781087,-0.433263158 54.7672391,0.651368421 C66.1054783,1.456 76.3506957,5.25221053 85.1127391,12.5204211 C91.8168043,18.0821053 96.5224565,24.9877895 98.7382826,33.4526316 C98.8365652,33.8269474 98.9288913,34.2071579 98.9914348,34.5932632 C99.0182391,34.7317895 98.9288913,34.8938947 98.9973913,34.6227368 Z M74.0723261,27.5608421 C74.1914565,23.8707368 71.1506522,20.6757895 67.392087,20.5254737 C63.4458913,20.3810526 60.3961522,23.2429474 60.2829783,27.216 C60.1757609,30.9591579 63.0587174,34.1246316 66.6862391,34.2631579 C70.611587,34.4046316 73.9531957,31.3717895 74.0723261,27.5608421 Z M40.0486739,27.3987368 C40.084413,23.7882105 36.8500217,20.5667368 33.142087,20.5136842 C29.2524783,20.4606316 26.247413,23.4728421 26.2146522,27.4547368 C26.1848696,31.1271579 29.2822609,34.2543158 32.9455217,34.2484211 C36.8589565,34.2366316 40.0129348,31.1978947 40.0486739,27.3987368 Z" id="Shape"></path>
                    <path d="M123.568043,111.537263 C122.293348,110.859368 121.024609,110.166737 119.746935,109.500632 C117.009913,108.074105 114.37713,106.323368 111.485239,105.315368 C108.444435,104.257263 105.50787,106.214316 102.484935,106.626947 C88.8385435,108.469053 76.3626087,105.854737 65.6259783,97.0951579 C49.1889565,83.6816842 49.2068261,61.2846316 65.6081087,47.824 C75.0611087,40.0635789 86.1193913,37.072 98.2587826,37.8648421 C107.926217,38.4985263 116.688261,41.6286316 124.127957,47.88 C140.392239,61.5469474 140.392239,83.2425263 124.1905,96.9713684 C124.110087,97.0450526 124.017761,97.1157895 123.928413,97.1835789 C122.749022,98.1974737 120.908457,99.0315789 120.571913,100.269474 C120.226435,101.530947 121.352217,103.187368 121.828739,104.672842 C122.52863,106.877474 123.234478,109.082105 123.93437,111.292632 C123.806304,111.375158 123.687174,111.454737 123.568043,111.537263 Z M87.7991304,61.3406316 C87.7991304,58.4610526 85.0501957,55.7553684 82.1255435,55.7553684 C79.060913,55.7553684 76.6336304,58.2665263 76.6574565,61.4084211 C76.6812826,64.3381053 79.1026087,66.7402105 82.0600217,66.7608421 C85.2050652,66.7844211 87.7991304,64.3322105 87.7991304,61.3406316 Z M115.121696,61.3848421 C115.109783,58.4256842 112.471043,55.7730526 109.543413,55.7730526 C106.74087,55.7730526 103.792391,58.4905263 103.762609,61.1048421 C103.729848,64.0522105 106.544304,66.8050526 109.543413,66.7578947 C112.605065,66.7107368 115.127652,64.2821053 115.121696,61.3848421 Z" id="Shape" fill-opacity="0.4"></path>
                </g>
            </g>
            <g id="if_1-42_987944" fill-rule="nonzero">
                <path d="M37.929,18 C38.549,19.325 39.136,20.667 39.81,21.964 C40.02,22.369 40.411,22.758 40.816,22.968 C42.048,23.608 43.327,24.156 44.813,24.845 C43.443,25.478 42.211,25.972 41.059,26.612 C40.513,26.915 39.99,27.422 39.688,27.966 C39.05,29.112 38.563,30.342 37.915,31.755 C37.282,30.382 36.788,29.144 36.145,27.989 C35.841,27.443 35.325,26.925 34.778,26.621 C33.633,25.985 32.405,25.5 31,24.856 C32.414,24.198 33.677,23.672 34.874,23.023 C35.36,22.76 35.836,22.297 36.081,21.807 C36.697,20.574 37.179,19.274 37.714,18.001 C37.786,18 37.857,18 37.929,18 Z" id="Shape" fill="#21B3FE"></path>
                <path d="M206.929,131 C207.549,132.325 208.136,133.667 208.81,134.964 C209.02,135.369 209.411,135.758 209.816,135.968 C211.048,136.608 212.327,137.156 213.813,137.845 C212.443,138.478 211.211,138.972 210.059,139.612 C209.513,139.915 208.99,140.422 208.688,140.966 C208.05,142.112 207.563,143.342 206.915,144.755 C206.282,143.382 205.788,142.144 205.145,140.989 C204.841,140.443 204.325,139.925 203.778,139.621 C202.633,138.985 201.405,138.5 200,137.856 C201.414,137.198 202.677,136.672 203.874,136.023 C204.36,135.76 204.836,135.297 205.081,134.807 C205.697,133.574 206.179,132.274 206.714,131.001 C206.786,131 206.858,131 206.929,131 Z" id="Shape" fill="#21B3FE"></path>
                <path d="M194.536,25.215 C193.365,22.668 192.476,20.44 191.323,18.358 C190.776,17.369 189.858,16.425 188.876,15.869 C186.799,14.693 184.57,13.786 182,12.58 C184.598,11.348 186.9,10.355 189.095,9.165 C189.929,8.713 190.73,7.921 191.178,7.087 C192.341,4.92 193.299,2.643 194.53,0 C195.733,2.565 196.697,4.853 197.877,7.023 C198.359,7.91 199.188,8.767 200.071,9.245 C202.225,10.409 204.502,11.344 207.147,12.563 C204.618,13.726 202.404,14.592 200.356,15.75 C199.313,16.34 198.327,17.32 197.74,18.362 C196.575,20.426 195.707,22.657 194.536,25.215 Z" id="Shape" fill="#D3F0FF"></path>
                <path d="M10.164,60 C10.849,61.449 11.536,62.496 11.849,63.645 C12.593,66.38 14.501,67.769 17.003,68.654 C18.039,69.021 19.012,69.562 20.326,70.168 C18.302,71.114 16.473,71.867 14.755,72.819 C13.989,73.243 13.262,73.966 12.838,74.731 C11.898,76.43 11.16,78.241 10.184,80.341 C9.26,78.386 8.392,76.699 7.664,74.954 C7.183,73.802 6.433,73.091 5.29,72.619 C3.599,71.92 1.962,71.092 0,70.179 C2.089,69.202 3.952,68.41 5.729,67.459 C6.409,67.095 7.068,66.458 7.431,65.782 C8.389,63.99 9.182,62.108 10.164,60 Z" id="Shape" fill="#D3F0FF"></path>
            </g>
            <ellipse id="Oval-3" fill="#F6F6F6" cx="112.5" cy="184.5" rx="72.5" ry="5.5"></ellipse>
        </g>
    </g>
</svg>